<svg xmlns="http://www.w3.org/2000/svg" viewBox="0 0 16 16"><defs><style>.icon-canvas-transparent,.icon-vs-out{fill:#f6f6f6}.icon-canvas-transparent{opacity:0}.icon-vs-action-blue{fill:#00539c}</style></defs><title>Save_16x</title><g id="canvas"><path d="M16,0V16H0V0Z" class="icon-canvas-transparent"/></g><g id="outline"><path d="M16,2V16H2.586L0,13.414V2A2,2,0,0,1,2,0H14A2,2,0,0,1,16,2Z" class="icon-vs-out"/></g><g id="iconBg"><path d="M6,12H8v3H6ZM15,2V15H12V10H4v5H3L1,13V2A1,1,0,0,1,2,1H14A1,1,0,0,1,15,2ZM13,3H3V7H13Z" class="icon-vs-action-blue"/></g></svg>